<svg xmlns="http://www.w3.org/2000/svg" width="159" height="170" viewBox="0 0 159 170">
  <g id="_03" data-name="03" transform="translate(-881 -384)">
    <g id="Vector_Smart_Object_copy" data-name="Vector Smart Object copy" transform="translate(816.161 367.215)">
      <g id="그룹_48" data-name="그룹 48">
        <g id="그룹_44" data-name="그룹 44">
          <g id="그룹_1" data-name="그룹 1">
            <path id="패스_1" data-name="패스 1" d="M134.033,179.344h3.207a2.046,2.046,0,0,1-.787,1.541,2.875,2.875,0,0,1-1.859.589,3.185,3.185,0,0,1-1.076-.175,2.707,2.707,0,0,1-.885-.521,1.96,1.96,0,0,1-.5-.655,1.829,1.829,0,0,1-.171-.785,1.674,1.674,0,0,1,.206-.809,2.188,2.188,0,0,1,.606-.689,2.623,2.623,0,0,1,.843-.443,3.451,3.451,0,0,1,1.036-.146,3.115,3.115,0,0,1,1.379.289,2.019,2.019,0,0,1,.9.823h-.922a1.648,1.648,0,0,0-.613-.394,2.3,2.3,0,0,0-.795-.131,2.225,2.225,0,0,0-.7.109,1.834,1.834,0,0,0-.589.315,1.6,1.6,0,0,0-.418.5,1.241,1.241,0,0,0-.15.58,1.378,1.378,0,0,0,.136.6,1.4,1.4,0,0,0,.389.489,2.007,2.007,0,0,0,.616.338,2.19,2.19,0,0,0,.714.12,2.15,2.15,0,0,0,1.044-.247,1.983,1.983,0,0,0,.745-.729h-2.353Z" fill="#003e92"/>
          </g>
          <g id="그룹_2" data-name="그룹 2">
            <path id="패스_2" data-name="패스 2" d="M137.489,178.327h.756l1.055,2.286,1.143-2.286h.756l-2.1,4.06h-.742l.544-1.079Z" fill="#003e92"/>
          </g>
          <g id="그룹_3" data-name="그룹 3">
            <path id="패스_3" data-name="패스 3" d="M142.125,180.063a1,1,0,0,0,.442.622,1.457,1.457,0,0,0,.839.239,1.526,1.526,0,0,0,.633-.13,1.138,1.138,0,0,0,.457-.368h.793a1.876,1.876,0,0,1-.755.779,2.278,2.278,0,0,1-1.126.269,2.506,2.506,0,0,1-.791-.119,2.026,2.026,0,0,1-.65-.361,1.682,1.682,0,0,1-.427-.526,1.324,1.324,0,0,1-.155-.613,1.341,1.341,0,0,1,.14-.6,1.617,1.617,0,0,1,.413-.513,2,2,0,0,1,.657-.378,2.424,2.424,0,0,1,.8-.128,2.4,2.4,0,0,1,.955.189,1.945,1.945,0,0,1,.731.526,1.424,1.424,0,0,1,.252.459,1.822,1.822,0,0,1,.082.571v.086Zm2.523-.5a1.1,1.1,0,0,0-.456-.586,1.412,1.412,0,0,0-.774-.207,1.484,1.484,0,0,0-.8.212,1.1,1.1,0,0,0-.468.58Z" fill="#003e92"/>
          </g>
          <g id="그룹_4" data-name="그룹 4">
            <path id="패스_4" data-name="패스 4" d="M145.8,179.861a1.366,1.366,0,0,1,.139-.609,1.573,1.573,0,0,1,.414-.509,2.166,2.166,0,0,1,.664-.382,2.212,2.212,0,0,1,.768-.134,2.529,2.529,0,0,1,.79.12,2.106,2.106,0,0,1,.658.355,1.666,1.666,0,0,1,.442.521,1.264,1.264,0,0,1,.155.6,1.408,1.408,0,0,1-.143.614,1.588,1.588,0,0,1-.4.521,2.072,2.072,0,0,1-.669.39,2.323,2.323,0,0,1-.79.133,2.465,2.465,0,0,1-.792-.122,2.02,2.02,0,0,1-.65-.358,1.671,1.671,0,0,1-.428-.525,1.332,1.332,0,0,1-.154-.613m.727-.006a.954.954,0,0,0,.371.767,1.4,1.4,0,0,0,.926.307,1.371,1.371,0,0,0,.911-.308.99.99,0,0,0,0-1.539,1.537,1.537,0,0,0-1.837,0,.966.966,0,0,0-.371.771" fill="#003e92"/>
          </g>
          <g id="그룹_5" data-name="그룹 5">
            <path id="패스_5" data-name="패스 5" d="M151.129,181.4h-.7v-3.07h.672v.348a1.424,1.424,0,0,1,.485-.3,1.787,1.787,0,0,1,.605-.1,1.749,1.749,0,0,1,1.177.355,1.269,1.269,0,0,1,.41,1.015V181.4h-.708v-1.631a1,1,0,0,0-.231-.726.962.962,0,0,0-.714-.236.947.947,0,0,0-.76.278,1.416,1.416,0,0,0-.236.918Z" fill="#003e92"/>
          </g>
          <g id="그룹_6" data-name="그룹 6">
            <path id="패스_6" data-name="패스 6" d="M154.656,181.643h.748a1.047,1.047,0,0,0,.429.328,1.548,1.548,0,0,0,.606.113,1.516,1.516,0,0,0,.956-.282.9.9,0,0,0,.363-.746v-.039a1.922,1.922,0,0,1-.6.335,2.186,2.186,0,0,1-.708.114,2.286,2.286,0,0,1-1.463-.461,1.419,1.419,0,0,1-.583-1.156,1.349,1.349,0,0,1,.146-.614,1.543,1.543,0,0,1,.415-.512,2.023,2.023,0,0,1,.645-.358,2.534,2.534,0,0,1,.8-.116,2.343,2.343,0,0,1,.737.112,2.012,2.012,0,0,1,.623.337v-.37h.7v2.558a1.571,1.571,0,0,1-.529,1.258,2.16,2.16,0,0,1-1.455.456,2.432,2.432,0,0,1-1.147-.251,1.454,1.454,0,0,1-.678-.705m.473-1.8a.965.965,0,0,0,.393.78,1.485,1.485,0,0,0,.962.315,1.425,1.425,0,0,0,.915-.315.93.93,0,0,0,.4-.741.968.968,0,0,0-.392-.772,1.426,1.426,0,0,0-.934-.322,1.492,1.492,0,0,0-.946.307.921.921,0,0,0-.393.749" fill="#003e92"/>
          </g>
          <g id="그룹_7" data-name="그룹 7">
            <path id="패스_7" data-name="패스 7" d="M159.964,181.02v1.367h-.7v-4.06h.706v.376a1.958,1.958,0,0,1,.6-.331,2.2,2.2,0,0,1,.71-.112,2.3,2.3,0,0,1,1.468.459,1.414,1.414,0,0,1,.583,1.156,1.329,1.329,0,0,1-.146.611,1.62,1.62,0,0,1-.419.516,1.969,1.969,0,0,1-.645.357,2.51,2.51,0,0,1-.8.116,2.315,2.315,0,0,1-.738-.114,2,2,0,0,1-.624-.34m-.021-1.181a.974.974,0,0,0,.389.775,1.417,1.417,0,0,0,.929.32,1.5,1.5,0,0,0,.946-.307.92.92,0,0,0,.394-.749.964.964,0,0,0-.39-.779,1.479,1.479,0,0,0-.956-.315,1.425,1.425,0,0,0-.915.316.929.929,0,0,0-.4.74" fill="#003e92"/>
          </g>
          <g id="그룹_8" data-name="그룹 8">
            <path id="패스_8" data-name="패스 8" d="M163.738,179.861a1.367,1.367,0,0,1,.14-.609,1.578,1.578,0,0,1,.414-.509,2.171,2.171,0,0,1,.664-.382,2.2,2.2,0,0,1,.766-.134,2.523,2.523,0,0,1,.791.12,2.1,2.1,0,0,1,.658.355,1.683,1.683,0,0,1,.443.521,1.268,1.268,0,0,1,.155.6,1.414,1.414,0,0,1-.144.614,1.6,1.6,0,0,1-.4.521,2.083,2.083,0,0,1-.669.39,2.325,2.325,0,0,1-.79.133,2.469,2.469,0,0,1-.792-.122,2.012,2.012,0,0,1-.649-.358,1.688,1.688,0,0,1-.429-.525,1.337,1.337,0,0,1-.154-.613m.728-.006a.95.95,0,0,0,.371.767,1.4,1.4,0,0,0,.926.307,1.367,1.367,0,0,0,.911-.308.988.988,0,0,0,0-1.539,1.535,1.535,0,0,0-1.836,0,.962.962,0,0,0-.371.771" fill="#003e92"/>
          </g>
          <g id="그룹_9" data-name="그룹 9">
            <path id="패스_9" data-name="패스 9" d="M171.184,180.21,170.6,181.4h-.794l2.02-4.061h.727l2.017,4.061h-.819l-.567-1.186Zm1.733-.572-.726-1.539-.741,1.539Z" fill="#003e92"/>
          </g>
          <g id="그룹_10" data-name="그룹 10">
            <path id="패스_10" data-name="패스 10" d="M178.7,182.387h-.708V181.02a1.917,1.917,0,0,1-.615.34,2.314,2.314,0,0,1-.739.114,2.511,2.511,0,0,1-.8-.116,1.975,1.975,0,0,1-.644-.357,1.644,1.644,0,0,1-.421-.516,1.343,1.343,0,0,1-.147-.611,1.41,1.41,0,0,1,.584-1.156,2.3,2.3,0,0,1,1.468-.459,2.193,2.193,0,0,1,.709.112,1.937,1.937,0,0,1,.6.331v-.376h.708Zm-1.992-3.6a1.478,1.478,0,0,0-.955.315.963.963,0,0,0-.39.779.922.922,0,0,0,.392.75,1.5,1.5,0,0,0,.946.305,1.417,1.417,0,0,0,.93-.319.97.97,0,0,0,.389-.775.93.93,0,0,0-.4-.74,1.43,1.43,0,0,0-.916-.316" fill="#003e92"/>
          </g>
          <g id="그룹_11" data-name="그룹 11">
            <path id="패스_11" data-name="패스 11" d="M182.762,181.4h-.672v-.346a1.387,1.387,0,0,1-.471.312,1.584,1.584,0,0,1-.584.1,1.668,1.668,0,0,1-1.144-.361,1.285,1.285,0,0,1-.4-1.013v-1.764h.7v1.606a1.081,1.081,0,0,0,.224.744.864.864,0,0,0,.673.248,1.154,1.154,0,0,0,.494-.1.847.847,0,0,0,.346-.292.785.785,0,0,0,.11-.279,2.726,2.726,0,0,0,.035-.52v-1.4h.693Z" fill="#003e92"/>
          </g>
          <g id="그룹_12" data-name="그룹 12">
            <path id="패스_12" data-name="패스 12" d="M186.769,181.4v-.38a1.932,1.932,0,0,1-.6.335,2.186,2.186,0,0,1-.709.114,2.288,2.288,0,0,1-1.463-.461,1.421,1.421,0,0,1-.583-1.156,1.353,1.353,0,0,1,.145-.614,1.553,1.553,0,0,1,.417-.512,1.991,1.991,0,0,1,.644-.358,2.53,2.53,0,0,1,.8-.116,2.336,2.336,0,0,1,.738.112,1.934,1.934,0,0,1,.615.337v-.37h.707v3.07Zm-2.63-1.557a.965.965,0,0,0,.393.78,1.482,1.482,0,0,0,.961.315,1.425,1.425,0,0,0,.916-.315.93.93,0,0,0,.4-.741.969.969,0,0,0-.392-.772,1.426,1.426,0,0,0-.933-.322,1.49,1.49,0,0,0-.947.307.921.921,0,0,0-.393.749" fill="#003e92"/>
          </g>
          <g id="그룹_13" data-name="그룹 13">
            <path id="패스_13" data-name="패스 13" d="M189,181.4h-.7v-3.07h.658v.353a1.088,1.088,0,0,1,.4-.3,1.3,1.3,0,0,1,.523-.1v.576a1.073,1.073,0,0,0-.676.219.811.811,0,0,0-.2.616Z" fill="#003e92"/>
          </g>
          <g id="그룹_14" data-name="그룹 14">
            <path id="패스_14" data-name="패스 14" d="M191.089,177.965h-.694v-.636h.694Zm-.694.361h.694v3.07h-.694Z" fill="#003e92"/>
          </g>
          <g id="그룹_15" data-name="그룹 15">
            <path id="패스_15" data-name="패스 15" d="M195.184,181.4h-.672v-.346a1.383,1.383,0,0,1-.471.312,1.576,1.576,0,0,1-.584.1,1.671,1.671,0,0,1-1.145-.361,1.286,1.286,0,0,1-.4-1.013v-1.764h.7v1.606a1.077,1.077,0,0,0,.224.744.863.863,0,0,0,.672.248,1.154,1.154,0,0,0,.494-.1.847.847,0,0,0,.346-.292.819.819,0,0,0,.112-.279,2.824,2.824,0,0,0,.035-.52v-1.4h.692Z" fill="#003e92"/>
          </g>
          <g id="그룹_16" data-name="그룹 16">
            <path id="패스_16" data-name="패스 16" d="M198.436,179.847a1.317,1.317,0,0,0-.2-.816.773.773,0,0,0-.641-.253.828.828,0,0,0-.67.255,1.206,1.206,0,0,0-.216.791V181.4h-.667v-3.07h.624v.36a1.263,1.263,0,0,1,.441-.309,1.454,1.454,0,0,1,.563-.1,1.706,1.706,0,0,1,.708.129,1.089,1.089,0,0,1,.463.4,1.114,1.114,0,0,1,.482-.4,1.8,1.8,0,0,1,.731-.132,1.581,1.581,0,0,1,1.062.339,1.132,1.132,0,0,1,.4.906V181.4H200.8v-1.789a.818.818,0,0,0-.22-.611,1.009,1.009,0,0,0-1.269.013,1.205,1.205,0,0,0-.2.782v1.6h-.681Z" fill="#003e92"/>
          </g>
          <g id="그룹_17" data-name="그룹 17">
            <path id="패스_17" data-name="패스 17" d="M106.894,180.023H96.246v-3.34h3.548v-3.352h3.55v3.352h3.55Z" fill="#003e92"/>
          </g>
          <g id="그룹_18" data-name="그룹 18">
            <path id="패스_18" data-name="패스 18" d="M69.356,153.228h10.65v16.747h-3.55v-13.4h-7.1Z" fill="#003e92"/>
          </g>
          <g id="그룹_19" data-name="그룹 19">
            <rect id="사각형_1" data-name="사각형 1" width="3.501" height="18.453" transform="translate(83.556 153.228)" fill="#003e92"/>
          </g>
          <g id="그룹_20" data-name="그룹 20">
            <rect id="사각형_2" data-name="사각형 2" width="4.042" height="3.303" transform="translate(79.907 156.579)" fill="#003e92"/>
          </g>
          <g id="그룹_21" data-name="그룹 21">
            <rect id="사각형_3" data-name="사각형 3" width="4.042" height="3.35" transform="translate(79.858 163.276)" fill="#003e92"/>
          </g>
          <g id="그룹_22" data-name="그룹 22">
            <rect id="사각형_4" data-name="사각형 4" width="14.241" height="3.349" transform="translate(94.449 153.228)" fill="#003e92"/>
          </g>
          <g id="그룹_23" data-name="그룹 23">
            <rect id="사각형_5" data-name="사각형 5" width="3.55" height="13.435" transform="translate(96.731 155.487)" fill="#003e92"/>
          </g>
          <g id="그룹_24" data-name="그룹 24">
            <rect id="사각형_6" data-name="사각형 6" width="3.55" height="13.435" transform="translate(102.858 155.487)" fill="#003e92"/>
          </g>
          <g id="그룹_25" data-name="그룹 25">
            <rect id="사각형_7" data-name="사각형 7" width="14.241" height="3.35" transform="translate(94.449 166.626)" fill="#003e92"/>
          </g>
          <g id="그룹_26" data-name="그룹 26">
            <path id="패스_19" data-name="패스 19" d="M89.057,181.883a5.365,5.365,0,0,1-3.711,1.462,4.941,4.941,0,1,1,0-9.865,5.379,5.379,0,0,1,3.673,1.423l2.581-2.433a9.126,9.126,0,0,0-6.254-2.432,8.388,8.388,0,1,0,0,16.748,9.125,9.125,0,0,0,6.292-2.469Z" fill="#003e92"/>
          </g>
          <g id="그룹_27" data-name="그룹 27">
            <path id="패스_20" data-name="패스 20" d="M90.572,178.41a4.784,4.784,0,0,1-1.515,3.472l2.583,2.433a8.047,8.047,0,0,0-.04-11.847L89.019,174.9a4.786,4.786,0,0,1,1.553,3.508" fill="#64c4d1"/>
          </g>
          <g id="그룹_28" data-name="그룹 28">
            <rect id="사각형_8" data-name="사각형 8" width="3.281" height="12.896" transform="translate(130.086 152.933)" fill="#003e92"/>
          </g>
          <g id="그룹_29" data-name="그룹 29">
            <rect id="사각형_9" data-name="사각형 9" width="3.797" height="2.603" transform="translate(132.851 158.091)" fill="#003e92"/>
          </g>
          <g id="그룹_30" data-name="그룹 30">
            <rect id="사각형_10" data-name="사각형 10" width="3.28" height="12.896" transform="translate(172.737 152.933)" fill="#003e92"/>
          </g>
          <g id="그룹_31" data-name="그룹 31">
            <rect id="사각형_11" data-name="사각형 11" width="3.28" height="12.896" transform="translate(195.712 152.933)" fill="#003e92"/>
          </g>
          <g id="그룹_32" data-name="그룹 32">
            <rect id="사각형_12" data-name="사각형 12" width="3.796" height="2.603" transform="translate(175.501 158.091)" fill="#003e92"/>
          </g>
          <g id="그룹_33" data-name="그룹 33">
            <path id="패스_21" data-name="패스 21" d="M139.929,152.933h9.843v12.9H146.49V160.67h-6.561v-2.58h6.561v-2.579h-6.561Z" fill="#003e92"/>
          </g>
          <g id="그룹_34" data-name="그룹 34">
            <path id="패스_22" data-name="패스 22" d="M139.929,168.415h9.843v2.573H146.49v2.579h-3.28v-2.579h-3.281Z" fill="#003e92"/>
          </g>
          <g id="그룹_35" data-name="그룹 35">
            <path id="패스_23" data-name="패스 23" d="M205.515,168.415h9.842v2.573h-3.28v2.579h-3.281v-2.579h-3.28Z" fill="#003e92"/>
          </g>
          <g id="그룹_36" data-name="그룹 36">
            <path id="패스_24" data-name="패스 24" d="M182.578,152.933h9.842v7.738h-6.561v2.579h6.561v2.579h-9.842v-7.738h6.561v-2.579h-6.561Z" fill="#003e92"/>
          </g>
          <g id="그룹_37" data-name="그룹 37">
            <path id="패스_25" data-name="패스 25" d="M205.513,181.329h9.873v-7.762h-9.873Zm6.592-2.58h-3.313v-2.6h3.313Z" fill="#003e92"/>
          </g>
          <g id="그룹_38" data-name="그룹 38">
            <path id="패스_26" data-name="패스 26" d="M122.048,162.066a5.533,5.533,0,0,1-3.429,1.123c-2.669,0-4.831-1.7-4.831-3.8s2.162-3.8,4.831-3.8a5.55,5.55,0,0,1,3.394,1.1l2.385-1.875a9.423,9.423,0,0,0-5.778-1.871c-4.53,0-8.2,2.887-8.2,6.448s3.672,6.447,8.2,6.447a9.407,9.407,0,0,0,5.813-1.9Z" fill="#003e92"/>
          </g>
          <g id="그룹_39" data-name="그룹 39">
            <path id="패스_27" data-name="패스 27" d="M123.45,159.393a3.433,3.433,0,0,1-1.4,2.674l2.384,1.874a5.527,5.527,0,0,0-.034-9.124l-2.385,1.875a3.443,3.443,0,0,1,1.436,2.7" fill="#64c4d1"/>
          </g>
          <g id="그룹_40" data-name="그룹 40">
            <path id="패스_28" data-name="패스 28" d="M164.675,162.066a5.537,5.537,0,0,1-3.429,1.123c-2.668,0-4.83-1.7-4.83-3.8s2.162-3.8,4.83-3.8a5.551,5.551,0,0,1,3.393,1.1l2.384-1.875a9.418,9.418,0,0,0-5.778-1.871c-4.529,0-8.2,2.887-8.2,6.448s3.673,6.447,8.2,6.447a9.406,9.406,0,0,0,5.813-1.9Z" fill="#003e92"/>
          </g>
          <g id="그룹_41" data-name="그룹 41">
            <path id="패스_29" data-name="패스 29" d="M166.076,159.393a3.431,3.431,0,0,1-1.4,2.674l2.384,1.874a5.527,5.527,0,0,0-.036-9.124l-2.384,1.875a3.44,3.44,0,0,1,1.437,2.7" fill="#64c4d1"/>
          </g>
          <g id="그룹_42" data-name="그룹 42">
            <path id="패스_30" data-name="패스 30" d="M213.909,162.066a5.539,5.539,0,0,1-3.43,1.123c-2.668,0-4.83-1.7-4.83-3.8s2.162-3.8,4.83-3.8a5.552,5.552,0,0,1,3.394,1.1l2.384-1.875a9.424,9.424,0,0,0-5.778-1.871c-4.529,0-8.2,2.887-8.2,6.448s3.671,6.447,8.2,6.447a9.4,9.4,0,0,0,5.813-1.9Z" fill="#003e92"/>
          </g>
          <g id="그룹_43" data-name="그룹 43">
            <path id="패스_31" data-name="패스 31" d="M215.309,159.393a3.435,3.435,0,0,1-1.4,2.674l2.383,1.874a5.527,5.527,0,0,0-.035-9.124l-2.384,1.875a3.445,3.445,0,0,1,1.436,2.7" fill="#64c4d1"/>
          </g>
        </g>
        <g id="그룹_47" data-name="그룹 47">
          <g id="그룹_46" data-name="그룹 46">
            <path id="패스_32" data-name="패스 32" d="M144.338,16.785A79.329,79.329,0,0,0,83.35,147.048L107.357,130a49.682,49.682,0,1,1,73.963,0l24.008,17.05A79.329,79.329,0,0,0,144.338,16.785M204.6,141.88l-17.751-12.608a53.48,53.48,0,1,0-85.025,0L84.076,141.88a75.7,75.7,0,1,1,120.527,0" fill="#003b82"/>
            <path id="패스_33" data-name="패스 33" d="M100.453,55.408a5.559,5.559,0,1,1-5.56-5.55,5.555,5.555,0,0,1,5.56,5.55" fill="#003b82"/>
            <path id="패스_34" data-name="패스 34" d="M175.441,35.658a5.544,5.544,0,0,1-3.395,9.938l-.048,0a5.551,5.551,0,1,0,3.443-9.935" fill="#003b82"/>
            <path id="패스_35" data-name="패스 35" d="M155.052,27.895a5.556,5.556,0,0,0-1.986.371,5.536,5.536,0,0,1-.92,9.9,5.55,5.55,0,1,0,2.905-10.274" fill="#003b82"/>
            <path id="패스_36" data-name="패스 36" d="M131.826,27.895a5.545,5.545,0,0,0-3.892,1.589,5.538,5.538,0,0,1,1.643,9.034,5.551,5.551,0,1,0,2.249-10.623" fill="#003b82"/>
            <path id="패스_37" data-name="패스 37" d="M111.154,35.656a5.557,5.557,0,0,0-5.218,3.65,5.513,5.513,0,0,1,2.008,6.426,5.552,5.552,0,1,0,3.211-10.076" fill="#003b82"/>
            <path id="패스_38" data-name="패스 38" d="M191.991,49.355a5.55,5.55,0,0,1-5,9.712,5.551,5.551,0,1,0,5-9.712" fill="#003b82"/>
            <g id="그룹_45" data-name="그룹 45">
              <path id="패스_39" data-name="패스 39" d="M116.885,99.84h-3.343l2.459,1.6S116.553,100.032,116.885,99.84Z" fill="#003b82"/>
              <path id="패스_40" data-name="패스 40" d="M119.15,99.84a10.944,10.944,0,0,0-1.464,2.564l2.873,1.93c.276-1.047,1.409-4.495,1.409-4.495Z" fill="#003b82"/>
              <path id="패스_41" data-name="패스 41" d="M117.383,103.507a13.15,13.15,0,0,0-1.935,6.977c-.083,7.115,4.669,6.15,4.669,6.15-1.187-3.613.138-11.2.138-11.2Z" fill="#003b82"/>
              <path id="패스_42" data-name="패스 42" d="M151.351,120.76l4.915,5.862-.12-8.351S151.9,120.568,151.351,120.76Z" fill="#003b82"/>
              <path id="패스_43" data-name="패스 43" d="M121.251,116.249a28.913,28.913,0,0,0,6.326-5.6l-5.608-4.164C120.974,108.582,121.251,116.249,121.251,116.249Z" fill="#003b82"/>
              <path id="패스_44" data-name="패스 44" d="M144.6,56.268A40.133,40.133,0,1,0,184.8,96.4,40.168,40.168,0,0,0,144.6,56.268Zm29.47,45.292-8.535,2.821,6.952-.4a36.744,36.744,0,0,1-14.47,13.2c1.017,2.991.564,12.131.564,12.131h-2.374l-6.613-7.786c-3.222,2.087-11.079,4.345-18.257,4.8s-10.514-7.674-10.514-7.674c-11.192-3.1-5.37-16.363-5.37-16.363-5.088-2.371-5.03-4.063-5.03-4.063a57.634,57.634,0,0,1,7.4-.395c3.052-5.417,10.118-13.2,10.118-13.2,1.922-15.517,6.839-24.94,6.839-24.94l1.244,1.58L137.5,80.738l5.765,4.457,1.336,1.7c-1.885,1.3-8.57,1.464-8.57,1.464l-1.244-1.805a37.913,37.913,0,0,0,7.349-1.015l-6.1-5.587-1.244-15.235c-3.845,8.006-5.37,21.893-5.37,21.893A106.233,106.233,0,0,0,120.2,97.893l2.318.113a38.994,38.994,0,0,1,3.5-6.941l1.527,1.467-3,5.924c5.313.169,12.548,2.878,12.548,2.878,7.8-6.884,13.792-9.593,13.792-9.593,11.982-6.433,25.323-3.724,25.323-3.724,5.877.451,3.5,4.458,3.5,4.458Z" fill="#003b82"/>
            </g>
          </g>
        </g>
      </g>
    </g>
  </g>
</svg>
