<?xml version="1.0" encoding="UTF-8"?><svg id="Layer_1" xmlns="http://www.w3.org/2000/svg" viewBox="0 0 267.55 51.91"><defs><style>.cls-1{fill:#82cddb;}.cls-2{fill:#004098;}</style></defs><g><path class="cls-2" d="M31.62,0C14.16,0,0,14.16,0,31.62c0,7.72,2.77,14.79,7.37,20.29l9.55-6.79c-3.14-3.5-5.05-8.13-5.05-13.2,0-10.92,8.85-19.76,19.76-19.76s19.76,8.85,19.76,19.76c0,5.07-1.91,9.7-5.05,13.2l9.55,6.79c4.59-5.49,7.36-12.57,7.36-20.29C63.25,14.16,49.09,0,31.62,0m23.97,49.85l-7.06-5.02c2.83-3.7,4.37-8.22,4.37-12.91,0-11.73-9.54-21.28-21.28-21.28S10.35,20.19,10.35,31.92c0,4.69,1.54,9.21,4.36,12.91l-7.06,5.02c-3.97-5.22-6.14-11.64-6.14-18.22C1.51,15.02,15.02,1.51,31.62,1.51s30.12,13.51,30.12,30.11c0,6.59-2.17,13.01-6.14,18.22"/><path class="cls-2" d="M14.17,15.39c0,1.22-.99,2.21-2.21,2.21s-2.21-.99-2.21-2.21,.99-2.21,2.21-2.21,2.21,.99,2.21,2.21"/><path class="cls-2" d="M44,7.52c.52,.4,.86,1.04,.86,1.75,0,1.22-.99,2.21-2.21,2.21h-.02c.37,.29,.84,.46,1.35,.46,1.22,0,2.21-.99,2.21-2.21s-.98-2.2-2.2-2.21"/><path class="cls-2" d="M35.89,4.43c-.28,0-.54,.05-.79,.15,.63,.39,1.05,1.08,1.05,1.88,0,.94-.59,1.75-1.42,2.06,.33,.21,.73,.33,1.15,.33,1.22,0,2.21-.99,2.21-2.21s-.99-2.21-2.21-2.21"/><path class="cls-2" d="M26.65,4.43c-.6,0-1.15,.24-1.55,.63,.78,.34,1.32,1.12,1.32,2.02,0,.62-.25,1.18-.67,1.57,.28,.13,.58,.19,.9,.19,1.22,0,2.21-.99,2.21-2.21s-.99-2.21-2.21-2.21"/><path class="cls-2" d="M18.43,7.52c-.96,0-1.77,.61-2.08,1.46,.57,.4,.93,1.06,.93,1.81,0,.26-.05,.52-.13,.76,.36,.25,.8,.41,1.28,.41,1.22,0,2.21-.99,2.21-2.21s-.99-2.21-2.21-2.21"/><path class="cls-2" d="M50.58,12.98c.53,.4,.87,1.04,.87,1.76,0,1.22-.99,2.21-2.21,2.21-.22,0-.44-.04-.65-.1,.37,.28,.84,.45,1.34,.45,1.22,0,2.21-.99,2.21-2.21,0-.99-.66-1.83-1.56-2.11"/><path class="cls-2" d="M22.44,39.64c1.22-.68,2.52-2.24,2.52-2.24l-2.23-1.65c-.39,.84-.29,3.89-.29,3.89m-.84-6.54c-.35,.43-.58,1.02-.58,1.02l1.14,.77c.11-.42,.56-1.79,.56-1.79h-1.12Zm-.7,1.46c-.82,1.22-.77,2.78-.77,2.78-.03,2.83,1.86,2.45,1.86,2.45-.47-1.44,.05-4.46,.05-4.46l-1.14-.77Zm-.2-1.46h-1.33l.98,.64s.22-.56,.35-.64M31.73,15.73c-8.83,0-15.99,7.16-15.99,15.99s7.16,15.99,15.99,15.99,15.99-7.16,15.99-15.99-7.16-15.99-15.99-15.99m11.72,18.05l-3.39,1.12,2.76-.16c-2.18,3.62-5.75,5.26-5.75,5.26,.4,1.19,.22,4.83,.22,4.83h-.94l-2.63-3.1c-1.28,.83-4.41,1.73-7.26,1.91-2.86,.18-4.18-3.06-4.18-3.06-4.45-1.24-2.13-6.52-2.13-6.52-2.03-.95-2-1.62-2-1.62,.63-.16,2.94-.16,2.94-.16,1.21-2.16,4.02-5.26,4.02-5.26,.77-6.19,2.72-9.94,2.72-9.94l.49,.63,.59,7.76,2.29,1.77,.53,.68c-.75,.52-3.41,.58-3.41,.58l-.49-.72c1.53-.04,2.92-.4,2.92-.4l-2.43-2.23-.49-6.07c-1.53,3.19-2.14,8.72-2.14,8.72-1.59,1.57-3.66,4.5-3.66,4.5l.92,.04c.43-1.26,1.39-2.77,1.39-2.77l.61,.58-1.2,2.36c2.12,.07,5,1.15,5,1.15,3.1-2.74,5.49-3.82,5.49-3.82,4.77-2.56,10.08-1.49,10.08-1.49,2.33,.18,1.39,1.78,1.39,1.78l-2.25,3.62Zm-9.04,7.65l1.95,2.34-.05-3.33s-1.69,.91-1.91,.99"/></g><g><g><path class="cls-2" d="M156.81,45.09h4.2c-.05,1.02-.39,1.83-1.03,2.46-.64,.63-1.45,.94-2.43,.94-.51,0-.98-.09-1.41-.28-.43-.19-.82-.46-1.16-.83-.29-.31-.51-.66-.66-1.05-.15-.39-.22-.81-.22-1.25s.09-.89,.27-1.29c.18-.41,.44-.78,.79-1.1,.33-.32,.7-.55,1.1-.71,.41-.16,.86-.23,1.36-.23,.69,0,1.29,.15,1.81,.46,.51,.31,.9,.75,1.17,1.31h-1.21c-.22-.28-.49-.49-.8-.63-.31-.14-.66-.21-1.04-.21-.32,0-.62,.06-.91,.18-.29,.12-.55,.28-.77,.5-.23,.23-.42,.5-.55,.8-.13,.3-.2,.61-.2,.93,0,.34,.06,.66,.18,.96,.11,.3,.29,.56,.51,.78,.23,.23,.5,.41,.81,.54,.31,.13,.62,.19,.93,.19,.52,0,.97-.13,1.37-.4,.39-.26,.72-.65,.97-1.16h-3.08v-.91Z"/><polygon class="cls-2" points="161.33 43.46 162.31 43.46 163.69 47.12 165.19 43.46 166.18 43.46 163.43 49.96 162.46 49.96 163.17 48.23 161.33 43.46"/><path class="cls-2" d="M167.39,46.24c.08,.41,.27,.74,.58,1,.31,.25,.68,.38,1.1,.38,.3,0,.58-.07,.83-.21,.25-.14,.45-.33,.6-.59h1.04c-.23,.54-.57,.96-.99,1.25-.42,.29-.91,.43-1.47,.43-.38,0-.72-.06-1.04-.19-.31-.13-.59-.32-.85-.58-.24-.24-.43-.52-.56-.84-.13-.32-.2-.65-.2-.98s.06-.66,.18-.97c.12-.3,.3-.57,.54-.82,.26-.27,.54-.47,.86-.6,.32-.14,.67-.2,1.05-.2,.45,0,.87,.1,1.25,.3,.39,.2,.7,.48,.95,.84,.15,.22,.26,.47,.33,.73,.07,.27,.11,.57,.11,.91v.14h-4.31Zm3.3-.8c-.12-.4-.31-.71-.6-.93-.28-.22-.62-.33-1.01-.33s-.75,.11-1.05,.34c-.3,.23-.5,.54-.61,.93h3.28Z"/><path class="cls-2" d="M172.2,45.92c0-.35,.06-.67,.18-.97,.12-.3,.31-.57,.54-.82,.26-.26,.55-.47,.87-.61,.32-.14,.66-.21,1-.21,.37,0,.72,.07,1.04,.19,.32,.13,.6,.32,.86,.57,.25,.25,.44,.52,.58,.83,.13,.31,.2,.63,.2,.96s-.06,.67-.19,.98c-.12,.32-.3,.6-.53,.83-.26,.27-.55,.48-.88,.62-.32,.14-.67,.21-1.03,.21s-.72-.06-1.04-.19c-.32-.13-.6-.32-.85-.57-.24-.24-.42-.52-.56-.84-.13-.32-.2-.64-.2-.98m.95,0c0,.49,.16,.9,.49,1.23,.32,.33,.73,.49,1.21,.49s.87-.17,1.19-.49c.32-.33,.48-.74,.48-1.23s-.16-.91-.48-1.23c-.32-.32-.72-.49-1.2-.49s-.88,.16-1.2,.49c-.33,.33-.49,.74-.49,1.23"/><path class="cls-2" d="M179.17,48.37h-.92v-4.91h.88v.55c.19-.22,.4-.38,.63-.49,.23-.1,.49-.15,.79-.15,.67,0,1.18,.19,1.54,.57,.36,.38,.54,.92,.54,1.62v2.8h-.93v-2.61c0-.52-.1-.91-.3-1.16-.2-.25-.51-.38-.93-.38-.46,0-.79,.15-.99,.45-.21,.29-.31,.79-.31,1.47v2.23Z"/><path class="cls-2" d="M183.79,48.77h.98c.14,.23,.33,.4,.56,.52,.23,.12,.5,.18,.79,.18,.52,0,.94-.15,1.25-.45,.32-.3,.48-.7,.48-1.19v-.06c-.24,.24-.5,.42-.79,.54-.29,.12-.6,.18-.92,.18-.77,0-1.41-.25-1.92-.74-.51-.5-.76-1.11-.76-1.85,0-.35,.06-.67,.19-.98,.13-.31,.31-.58,.54-.82,.26-.26,.54-.45,.84-.58,.3-.12,.65-.18,1.04-.18,.34,0,.67,.06,.96,.18,.3,.12,.57,.3,.82,.54v-.59h.92v4.09c0,.85-.23,1.53-.69,2.01-.46,.48-1.1,.73-1.91,.73-.59,0-1.09-.13-1.5-.4-.42-.27-.71-.64-.89-1.13m.62-2.88c0,.5,.17,.91,.51,1.25,.34,.34,.76,.5,1.26,.5,.45,0,.85-.17,1.2-.5,.34-.34,.52-.73,.52-1.18,0-.48-.17-.9-.51-1.24-.34-.34-.75-.52-1.22-.52s-.9,.16-1.24,.49c-.34,.33-.51,.73-.51,1.2"/><path class="cls-2" d="M190.73,47.77v2.18h-.92v-6.49h.92v.6c.24-.23,.5-.41,.79-.53,.29-.12,.6-.18,.93-.18,.77,0,1.41,.25,1.92,.74,.51,.49,.76,1.11,.76,1.85,0,.34-.06,.67-.19,.98-.13,.31-.31,.58-.55,.82-.26,.26-.54,.45-.85,.57-.3,.12-.65,.19-1.04,.19-.35,0-.67-.06-.97-.18-.29-.12-.57-.3-.81-.55m-.03-1.89c0,.48,.17,.9,.51,1.24,.34,.34,.74,.51,1.22,.51s.89-.17,1.24-.49c.34-.33,.51-.73,.51-1.2,0-.5-.17-.91-.51-1.25-.34-.33-.76-.5-1.25-.5-.45,0-.85,.17-1.2,.51-.35,.34-.52,.73-.52,1.18"/><path class="cls-2" d="M195.67,45.92c0-.35,.06-.67,.18-.97,.12-.3,.31-.57,.54-.82,.26-.26,.55-.47,.87-.61,.32-.14,.66-.21,1-.21,.37,0,.72,.07,1.04,.19,.32,.13,.61,.32,.86,.57,.25,.25,.44,.52,.58,.83,.13,.31,.2,.63,.2,.96s-.06,.67-.19,.98c-.13,.32-.3,.6-.53,.83-.26,.27-.55,.48-.88,.62-.32,.14-.67,.21-1.04,.21s-.72-.06-1.04-.19c-.32-.13-.6-.32-.85-.57-.24-.24-.43-.52-.56-.84-.13-.32-.2-.64-.2-.98m.95,0c0,.49,.16,.9,.49,1.23,.32,.33,.73,.49,1.21,.49s.87-.17,1.19-.49c.32-.33,.48-.74,.48-1.23s-.16-.91-.48-1.23c-.32-.32-.72-.49-1.2-.49s-.88,.16-1.2,.49c-.32,.33-.49,.74-.49,1.23"/><path class="cls-2" d="M205.41,46.48l-.76,1.89h-1.04l2.64-6.49h.95l2.64,6.49h-1.07l-.75-1.89h-2.62Zm2.27-.91l-.95-2.46-.97,2.46h1.92Z"/><path class="cls-2" d="M215.24,49.96h-.93v-2.18c-.24,.24-.51,.42-.8,.55-.29,.12-.62,.18-.97,.18-.39,0-.74-.06-1.04-.19-.3-.12-.58-.31-.84-.57-.24-.24-.42-.52-.55-.82-.13-.31-.19-.64-.19-.98,0-.74,.25-1.36,.77-1.85,.51-.49,1.15-.74,1.92-.74,.33,0,.64,.06,.93,.18,.29,.12,.55,.3,.79,.53v-.6h.93v6.49Zm-2.6-5.76c-.49,0-.9,.17-1.25,.5-.34,.34-.51,.75-.51,1.25s.17,.87,.51,1.2c.34,.33,.76,.49,1.24,.49s.88-.17,1.22-.51c.34-.34,.51-.76,.51-1.24,0-.45-.17-.84-.52-1.18-.34-.34-.74-.51-1.2-.51"/><path class="cls-2" d="M220.55,48.37h-.88v-.55c-.18,.22-.39,.39-.62,.5-.23,.11-.48,.16-.76,.16-.64,0-1.15-.19-1.5-.58-.35-.39-.53-.92-.53-1.62v-2.82h.91v2.57c0,.53,.1,.92,.29,1.19,.2,.27,.49,.4,.88,.4,.24,0,.46-.05,.65-.16,.19-.11,.34-.27,.46-.47,.07-.12,.12-.27,.14-.45,.03-.17,.05-.45,.05-.83v-2.24h.91v4.91Z"/><path class="cls-2" d="M225.8,48.37v-.61c-.24,.24-.5,.42-.79,.54-.29,.12-.6,.18-.93,.18-.77,0-1.41-.25-1.92-.74-.51-.5-.76-1.11-.76-1.85,0-.35,.06-.67,.19-.98,.12-.31,.31-.58,.54-.82,.26-.26,.54-.45,.84-.58,.3-.12,.65-.18,1.04-.18,.35,0,.67,.06,.96,.18,.29,.12,.56,.3,.8,.54v-.59h.93v4.91h-.93Zm-3.44-2.49c0,.5,.17,.91,.51,1.25,.34,.34,.76,.5,1.26,.5,.45,0,.85-.17,1.2-.5,.35-.34,.52-.73,.52-1.18,0-.48-.17-.9-.51-1.24-.34-.34-.75-.52-1.22-.52s-.9,.16-1.24,.49c-.34,.33-.51,.73-.51,1.2"/><path class="cls-2" d="M228.71,48.37h-.91v-4.91h.86v.56c.15-.22,.33-.38,.53-.49,.2-.11,.42-.16,.68-.16v.92c-.41,.03-.71,.15-.89,.35-.18,.2-.27,.53-.27,.99v2.73Z"/><path class="cls-2" d="M231.45,42.89h-.91v-1.02h.91v1.02Zm-.91,.58h.91v4.91h-.91v-4.91Z"/><path class="cls-2" d="M236.81,48.37h-.88v-.55c-.18,.22-.39,.39-.62,.5-.23,.11-.48,.16-.76,.16-.64,0-1.14-.19-1.5-.58-.35-.39-.53-.92-.53-1.62v-2.82h.92v2.57c0,.53,.1,.92,.29,1.19,.2,.27,.49,.4,.88,.4,.24,0,.45-.05,.64-.16,.19-.11,.34-.27,.45-.47,.07-.12,.12-.27,.15-.45,.03-.17,.04-.45,.04-.83v-2.24h.91v4.91Z"/><path class="cls-2" d="M241.06,45.89c0-.6-.09-1.03-.27-1.3-.18-.27-.46-.41-.84-.41s-.69,.14-.88,.41c-.19,.27-.28,.69-.28,1.26v2.51h-.87v-4.91h.82v.57c.17-.22,.36-.38,.58-.49,.21-.11,.46-.16,.73-.16,.37,0,.68,.07,.93,.2,.25,.14,.45,.35,.61,.64,.16-.29,.37-.5,.63-.64,.26-.14,.58-.21,.96-.21,.58,0,1.04,.18,1.39,.54,.35,.36,.52,.84,.52,1.45v3h-.92v-2.86c0-.42-.1-.75-.29-.98-.19-.23-.46-.35-.8-.35-.4,0-.68,.12-.86,.37-.17,.25-.26,.66-.26,1.25v2.57h-.89v-2.48Z"/><g><rect class="cls-2" x="207.44" y="2.86" width="4.29" height="20.62"/><g><rect class="cls-2" x="151.64" y="2.86" width="4.29" height="20.62"/><rect class="cls-2" x="155.26" y="11.11" width="4.97" height="4.16"/><rect class="cls-2" x="237.5" y="2.86" width="4.29" height="20.62"/><rect class="cls-2" x="211.06" y="11.11" width="4.96" height="4.16"/><polygon class="cls-2" points="164.52 2.86 177.4 2.86 177.4 23.48 173.1 23.48 173.1 15.23 164.52 15.23 164.52 11.11 173.1 11.11 173.1 6.98 164.52 6.98 164.52 2.86"/><polygon class="cls-2" points="164.52 27.62 177.4 27.62 177.4 31.73 173.1 31.73 173.1 35.85 168.81 35.85 168.81 31.73 164.52 31.73 164.52 27.62"/><polygon class="cls-2" points="250.33 27.62 263.2 27.62 263.2 31.73 258.91 31.73 258.91 35.85 254.62 35.85 254.62 31.73 250.33 31.73 250.33 27.62"/><polygon class="cls-2" points="220.31 2.86 233.19 2.86 233.19 15.23 224.61 15.23 224.61 19.36 233.19 19.36 233.19 23.48 220.31 23.48 220.31 11.11 228.9 11.11 228.9 6.98 220.31 6.98 220.31 2.86"/><path class="cls-2" d="M250.32,48.26h12.92v-12.41h-12.92v12.41Zm8.62-4.12h-4.33v-4.16h4.33v4.16Z"/><path class="cls-2" d="M141.12,17.46c-1.14,1.11-2.73,1.8-4.49,1.8-3.49,0-6.32-2.72-6.32-6.07s2.83-6.07,6.32-6.07c1.73,0,3.3,.67,4.44,1.75l3.12-3c-1.94-1.85-4.61-2.99-7.56-2.99-5.93,0-10.73,4.61-10.73,10.31s4.8,10.31,10.73,10.31c2.97,0,5.66-1.16,7.61-3.04l-3.12-3Z"/><path class="cls-1" d="M142.96,13.19c0,1.67-.7,3.18-1.83,4.28l3.12,3c1.93-1.86,3.13-4.43,3.13-7.27s-1.21-5.45-3.17-7.31l-3.12,3c1.16,1.1,1.88,2.63,1.88,4.32"/><path class="cls-2" d="M196.9,17.46c-1.14,1.11-2.73,1.8-4.49,1.8-3.49,0-6.32-2.72-6.32-6.07s2.83-6.07,6.32-6.07c1.73,0,3.3,.67,4.44,1.75l3.12-3c-1.94-1.85-4.61-2.99-7.56-2.99-5.93,0-10.73,4.61-10.73,10.31s4.81,10.31,10.73,10.31c2.97,0,5.66-1.16,7.61-3.04l-3.12-3Z"/><path class="cls-1" d="M198.73,13.19c0,1.67-.7,3.18-1.83,4.28l3.12,3c1.93-1.86,3.13-4.43,3.13-7.27s-1.21-5.45-3.17-7.31l-3.12,3c1.16,1.1,1.88,2.63,1.88,4.32"/><path class="cls-2" d="M261.31,17.46c-1.15,1.11-2.73,1.8-4.49,1.8-3.49,0-6.32-2.72-6.32-6.07s2.83-6.07,6.32-6.07c1.73,0,3.3,.67,4.44,1.75l3.12-3c-1.94-1.85-4.62-2.99-7.56-2.99-5.93,0-10.73,4.61-10.73,10.31s4.8,10.31,10.73,10.31c2.97,0,5.66-1.16,7.61-3.04l-3.12-3Z"/><path class="cls-1" d="M263.14,13.19c0,1.67-.7,3.18-1.83,4.28l3.12,3c1.93-1.86,3.13-4.43,3.13-7.27s-1.21-5.45-3.17-7.31l-3.12,3c1.16,1.1,1.88,2.63,1.88,4.32"/></g></g></g><g><polygon class="cls-2" points="119.75 41.89 104.85 41.89 104.85 37.13 109.82 37.13 109.82 32.35 114.78 32.35 114.78 37.13 119.75 37.13 119.75 41.89"/><polygon class="cls-2" points="67.23 3.71 82.13 3.71 82.13 27.57 77.16 27.57 77.16 8.48 67.23 8.48 67.23 3.71"/><rect class="cls-2" x="87.1" y="3.71" width="4.89" height="26.29"/><rect class="cls-2" x="81.99" y="8.49" width="5.66" height="4.7"/><rect class="cls-2" x="81.93" y="18.03" width="5.65" height="4.77"/><rect class="cls-2" x="102.34" y="3.71" width="19.92" height="4.77"/><rect class="cls-2" x="105.54" y="6.93" width="4.97" height="19.14"/><rect class="cls-2" x="114.11" y="6.93" width="4.97" height="19.14"/><rect class="cls-2" x="102.34" y="22.8" width="19.92" height="4.77"/><path class="cls-2" d="M94.8,44.54c-1.32,1.28-3.16,2.08-5.19,2.08-4.04,0-7.31-3.14-7.31-7.03s3.27-7.02,7.31-7.02c2,0,3.81,.77,5.14,2.02l3.61-3.47c-2.24-2.14-5.33-3.46-8.75-3.46-6.86,0-12.42,5.34-12.42,11.93s5.56,11.93,12.42,11.93c3.44,0,6.55-1.35,8.8-3.51l-3.61-3.47Z"/><path class="cls-1" d="M96.91,39.59c0,1.93-.81,3.68-2.12,4.95l3.61,3.47c2.23-2.16,3.61-5.13,3.61-8.42s-1.41-6.3-3.67-8.46l-3.61,3.47c1.34,1.27,2.17,3.04,2.17,5"/></g></g></svg>